:SAMPLES-PER-SECOND 30
:FULLY-SPECIFIED
:DEGREES
560
root  -46.2228 34.4286 -0.780744 -124.274 82.7286 -127.406
RightUpLeg  -11.5835 -7.76349 6.55538
RightLeg  11.9217 6.77838 0.980494
RightFoot  5.56486 -0.013465 0.771266
RightToes  -38.9419 -0.210087 -0.309068
Spine  1.08085 -0.0261663 1.53977
Spine1  2.1352 0.0138516 3.66853
HEad  -81.5087 -11.2091 18.4571
LeftShoulder1  -1.94126e-019 -3.10601e-018 -2.51263e-017
LeftArm  1.90978 22.3983 -79.8133
LeftForeArm  25.5465 -40.8528 -8.01052
LeftHand  -0.374471 -1.16172 6.77998
RightShoulder  -4.96962e-017 0 -2.36833e-017
RightArm  -9.08252 -19.7461 71.9609
RightForeArm  46.9516 35.7206 5.27648
RightHand  -0.0286404 -0.734205 -0.620202
LeftUpLeg  -15.9338 12.2061 10.3442
LeftLeg  38.6137 19.1331 12.8883
LeftFoot  -9.3646 -0.325162 -3.80688
LeftToes  -7.19179 1.83942e-006 5.51297e-008
561
root  -46.5714 34.3796 -0.852489 -117.342 82.9253 -121.094
RightUpLeg  -13.014 -8.77964 6.85313
RightLeg  12.2805 8.48251 1.27943
RightFoot  5.94497 -0.0262433 0.989918
RightToes  -42.2095 -0.23637 -0.32726
Spine  0.964348 -0.218151 1.75198
Spine1  1.90314 -0.357459 4.07594
HEad  -82.2533 -10.4671 18.0288
LeftShoulder1  -1.94126e-019 -3.10601e-018 -2.51263e-017
LeftArm  2.53777 23.0703 -79.0287
LeftForeArm  24.7302 -45.738 -9.7383
LeftHand  -0.362567 -1.22773 6.5083
RightShoulder  -4.96962e-017 0 -2.36833e-017
RightArm  -8.56284 -21.0279 70.5722
RightForeArm  44.7999 43.0507 7.42969
RightHand  0.00952491 -0.879387 0.372275
LeftUpLeg  -14.4239 11.0279 9.23417
LeftLeg  37.4343 17.0302 11.0679
LeftFoot  -10.3129 -0.342971 -3.63766
LeftToes  -10.0658 1.83942e-006 5.51297e-008
562
root  -46.9374 34.2881 -0.965677 -110.918 82.9781 -115.181
RightUpLeg  -14.9054 -9.9208 7.13493
RightLeg  13.7152 10.2033 1.79707
RightFoot  5.89436 -0.0353983 1.163
RightToes  -45.4308 -0.263255 -0.3437
Spine  0.895236 -0.425332 1.90649
Spine1  1.76653 -0.752679 4.36449
HEad  -82.8988 -9.55493 18.0391
LeftShoulder1  -1.94126e-019 -3.10601e-018 -2.51263e-017
LeftArm  3.39155 23.2324 -78.0575
LeftForeArm  25.1537 -51.0888 -11.956
LeftHand  -0.382656 -1.08344 7.00269
RightShoulder  -4.96962e-017 0 -2.36833e-017
RightArm  -7.92025 -21.6758 69.326
RightForeArm  44.9141 50.4622 10.0785
RightHand  0.0132261 -1.29519 0.582336
LeftUpLeg  -12.6379 10.9891 7.90774
LeftLeg  35.1384 15.0951 9.04675
LeftFoot  -9.42854 -0.245987 -2.82067
LeftToes  -13.9682 1.83942e-006 5.51297e-008
563
root  -47.3418 34.1655 -1.1346 -107.906 83.4692 -112.647
RightUpLeg  -17.6164 -11.9233 6.83847
RightLeg  16.7941 12.4773 2.88307
RightFoot  5.18249 -0.0359636 1.25573
RightToes  -48.7742 -0.29209 -0.359137
Spine  0.842569 -0.669901 1.80363
Spine1  1.65645 -1.21664 4.14229
HEad  -82.9906 -8.83344 18.2427
LeftShoulder1  -1.94126e-019 -3.10601e-018 -2.51263e-017
LeftArm  4.07668 22.7875 -76.7658
LeftForeArm  26.1522 -56.6252 -14.8992
LeftHand  -0.411676 -0.946229 7.67599
RightShoulder  -4.96962e-017 0 -2.36833e-017
RightArm  -7.85265 -21.7456 68.5605
RightForeArm  46.6374 58.0584 13.7832
RightHand  0.0190489 -1.87631 0.983526
LeftUpLeg  -10.7129 11.5424 6.16543
LeftLeg  31.0756 14.3821 7.33009
LeftFoot  -12.6246 -0.402279 -3.47388
LeftToes  -12.9188 1.83942e-006 5.51297e-008
564
root  -47.7656 34.0896 -1.41894 -118.518 85.3714 -122.95
RightUpLeg  -20.3516 -15.7747 4.56674
RightLeg  21.62 15.796 5.03813
RightFoot  3.98798 -0.0283705 1.25302
RightToes  -52.4634 -0.324891 -0.374187
Spine  1.09964 -1.06366 1.04008
Spine1  2.13553 -1.98068 2.58801
HEad  -83.0896 -8.23531 18.9248
LeftShoulder1  -1.94126e-019 -3.10601e-018 -2.51263e-017
LeftArm  4.24634 21.0934 -75.0126
LeftForeArm  27.8064 -61.5184 -18.3769
LeftHand  -0.437644 -0.892831 8.21769
RightShoulder  -4.96962e-017 0 -2.36833e-017
RightArm  -8.46944 -20.8512 68.8802
RightForeArm  49.4541 64.9917 19.0002
RightHand  0.00363039 -2.14456 0.558792
LeftUpLeg  -9.8393 12.2362 3.3847
LeftLeg  28.4976 14.6208 6.65324
LeftFoot  -11.8921 -0.355315 -3.24895
LeftToes  -12.6868 1.83942e-006 5.51297e-008
565
root  -48.2094 34.0212 -1.64961 -144.794 86.1465 -149.119
RightUpLeg  -22.8854 -20.7997 2.73931
RightLeg  25.7495 19.5841 7.74138
RightFoot  3.50742 -0.030186 1.39719
RightToes  -55.3906 -0.351564 -0.384607
Spine  1.19151 -1.39564 0.178581
Spine1  2.31027 -2.61267 0.856254
HEad  -82.8852 -8.66024 19.6506
LeftShoulder1  -1.94126e-019 -3.10601e-018 -2.51263e-017
LeftArm  4.74232 18.5508 -73.0004
LeftForeArm  31.6142 -66.529 -23.3506
LeftHand  -0.462829 -0.771778 8.84438
RightShoulder  -4.96962e-017 0 -2.36833e-017
RightArm  -10.1483 -20.6118 70.1414
RightForeArm  55.6438 71.6026 27.7192
RightHand  -0.0477979 -2.38283 -1.37277
LeftUpLeg  -11.4468 12.3849 1.17464
LeftLeg  29.9567 13.6165 6.62505
LeftFoot  -10.181 -0.244487 -2.5825
LeftToes  -12.9181 1.83942e-006 5.51297e-008
566
root  -48.5552 33.9513 -1.79398 -152.101 85.8637 -156.366
RightUpLeg  -24.3878 -25.5925 2.70424
RightLeg  27.9028 23.3142 10.1012
RightFoot  3.55493 -0.0411425 1.71059
RightToes  -59.5185 -0.390007 -0.396958
Spine  1.13008 -1.16915 -0.218526
Spine1  2.1952 -2.13136 0.0619765
HEad  -82.0198 -10.1808 19.0883
LeftShoulder1  -1.94126e-019 -3.10601e-018 -2.51263e-017
LeftArm  6.14175 15.6068 -71.3936
LeftForeArm  40.0401 -72.0855 -32.2469
LeftHand  -0.484262 -0.684335 9.37457
RightShoulder  -4.96962e-017 0 -2.36833e-017
RightArm  -12.0324 -21.2194 70.7085
RightForeArm  71.5965 77.7706 46.5346
RightHand  -0.0825219 -2.97493 -3.28446
LeftUpLeg  -12.0987 16.8241 1.05769
LeftLeg  29.8393 9.28006 4.52398
LeftFoot  -10.1168 -0.162588 -1.67514
LeftToes  -15.5745 1.83942e-006 5.51297e-008
567
root  -48.8599 33.9144 -2.00681 -161.204 86.2133 -165.275
RightUpLeg  -25.5706 -29.4583 2.07204
RightLeg  29.8829 25.3333 11.8977
RightFoot  2.1755 -0.0153382 1.17406
RightToes  -62.0327 -0.413821 -0.403113
Spine  1.12558 -0.763939 -0.638247
Spine1  2.17483 -1.28718 -0.786341
HEad  -81.3603 -11.2137 17.6694
LeftShoulder1  -1.94126e-019 -3.10601e-018 -2.51263e-017
LeftArm  6.36949 12.6596 -70.3599
LeftForeArm  56.1002 -77.2259 -50.0794
LeftHand  -0.499272 -0.772006 9.53145
RightShoulder  -4.96962e-017 0 -2.36833e-017
RightArm  -12.9428 -20.691 70.6136
RightForeArm  106.202 80.8851 84.0716
RightHand  -0.0965514 -3.34716 -4.62305
LeftUpLeg  -11.9497 19.3335 0.154014
LeftLeg  28.9779 7.27727 3.42166
LeftFoot  -10.0019 -0.123257 -1.24697
LeftToes  -16.3048 1.83942e-006 5.51297e-008
